<svg width="48" height="48" viewBox="0 0 48 48" fill="none" xmlns="http://www.w3.org/2000/svg">
<circle cx="24" cy="24" r="24" fill="white"/>
<path d="M28.502 15C27.6288 14.9985 26.7674 15.2008 25.9862 15.5907C25.205 15.9807 24.5256 16.5475 24.002 17.2462C23.2928 16.3027 22.3049 15.606 21.178 15.2548C20.0511 14.9036 18.8423 14.9157 17.7227 15.2894C16.603 15.663 15.6292 16.3793 14.9391 17.3368C14.2489 18.2943 13.8774 19.4447 13.877 20.625C13.877 27.3621 23.237 32.6813 23.6355 32.9044C23.7474 32.9671 23.8736 33 24.002 33C24.1303 33 24.2565 32.9671 24.3684 32.9044C26.0899 31.8961 27.7056 30.7173 29.1912 29.3856C32.4663 26.438 34.127 23.4905 34.127 20.625C34.1253 19.1337 33.5321 17.7039 32.4776 16.6494C31.423 15.5949 29.9933 15.0017 28.502 15Z" fill="#DBE2E5"/>
</svg>
